G75*
G70*
%OFA0B0*%
%FSLAX24Y24*%
%IPPOS*%
%LPD*%
%AMOC8*
5,1,8,0,0,1.08239X$1,22.5*
%
%ADD10C,0.0100*%
%ADD11R,0.0394X0.0098*%
%ADD12R,0.0098X0.0394*%
%ADD13R,0.1181X0.1181*%
%ADD14R,0.0394X0.0433*%
%ADD15R,0.0433X0.0394*%
%ADD16R,0.0295X0.0276*%
%ADD17R,0.0276X0.0295*%
%ADD18R,0.0118X0.0394*%
%ADD19R,0.0236X0.0236*%
%ADD20C,0.0748*%
%ADD21R,0.0551X0.0453*%
%ADD22C,0.0098*%
%ADD23C,0.0394*%
%ADD24C,0.0118*%
%ADD25C,0.0079*%
%ADD26C,0.0394*%
D10*
X000160Y000159D02*
X000155Y010589D01*
X004780Y010589D01*
X004780Y009389D01*
X005905Y009389D01*
X005905Y010589D01*
X009155Y010585D01*
X009155Y009389D01*
X015905Y009389D01*
X015905Y010589D01*
X017155Y010589D01*
X017155Y009389D01*
X017905Y009389D01*
X017905Y010589D01*
X020166Y010589D01*
X020166Y005517D01*
X021229Y005517D01*
X021229Y004257D01*
X020156Y004257D01*
X020156Y000164D01*
X000160Y000159D01*
X014561Y004414D02*
X018055Y004414D01*
X018530Y004889D01*
X020530Y004889D01*
D11*
X014561Y004807D03*
X014561Y004611D03*
X014561Y004414D03*
X014561Y004217D03*
X014561Y004020D03*
X014561Y003823D03*
X014561Y005004D03*
X014561Y005201D03*
X012514Y005201D03*
X012514Y005004D03*
X012514Y004807D03*
X012514Y004611D03*
X012514Y004414D03*
X012514Y004217D03*
X012514Y004020D03*
X012514Y003823D03*
D12*
X012848Y003489D03*
X013045Y003489D03*
X013242Y003489D03*
X013439Y003489D03*
X013636Y003489D03*
X013832Y003489D03*
X014029Y003489D03*
X014226Y003489D03*
X014226Y005536D03*
X014029Y005536D03*
X013832Y005536D03*
X013636Y005536D03*
X013439Y005536D03*
X013242Y005536D03*
X013045Y005536D03*
X012848Y005536D03*
D13*
X013537Y004512D03*
D14*
X013832Y006698D03*
X013832Y007367D03*
X012883Y007371D03*
X012883Y006702D03*
X011950Y006714D03*
X011950Y007383D03*
X010993Y007387D03*
X010993Y006718D03*
X005941Y006811D03*
X005941Y007481D03*
X016661Y007321D03*
X016661Y006652D03*
D15*
X016551Y005661D03*
X015882Y005661D03*
X015873Y004895D03*
X016542Y004895D03*
X009992Y003920D03*
X009323Y003920D03*
D16*
X010916Y004780D03*
X010915Y005202D03*
X011446Y005202D03*
X011448Y004780D03*
D17*
X009868Y004668D03*
X009868Y005199D03*
X007406Y005590D03*
X007406Y006121D03*
D18*
X008545Y005229D03*
X008801Y005229D03*
X009057Y005229D03*
X009057Y004658D03*
X008801Y004658D03*
X008545Y004658D03*
D19*
X014025Y002366D03*
D20*
X007530Y000889D03*
X006530Y000889D03*
X006530Y009889D03*
X007530Y009889D03*
X008530Y009889D03*
X016530Y009889D03*
X018530Y009889D03*
X019530Y009889D03*
X020530Y004889D03*
D21*
X015871Y006694D03*
X015871Y007324D03*
X014690Y007324D03*
X014690Y006694D03*
D22*
X013835Y006694D01*
X013832Y006698D01*
X013832Y006697D01*
X013832Y005536D01*
X013636Y005536D02*
X013439Y005536D01*
X013439Y006221D01*
X013351Y006308D01*
X013242Y005981D02*
X012887Y006336D01*
X012887Y006698D01*
X012883Y006702D01*
X012879Y006698D01*
X012440Y006677D02*
X012393Y006677D01*
X012393Y006774D02*
X012440Y006774D01*
X012440Y006871D02*
X012393Y006871D01*
X012393Y006968D02*
X012440Y006968D01*
X012440Y006967D02*
X012440Y006505D01*
X012393Y006505D01*
X012393Y006979D01*
X012355Y007069D01*
X012292Y007133D01*
X012296Y007147D01*
X012296Y007334D01*
X011999Y007334D01*
X011999Y007432D01*
X012296Y007432D01*
X012296Y007619D01*
X012286Y007657D01*
X012266Y007691D01*
X012238Y007719D01*
X012204Y007738D01*
X012166Y007749D01*
X011999Y007749D01*
X011999Y007432D01*
X011900Y007432D01*
X011900Y007334D01*
X011604Y007334D01*
X011604Y007147D01*
X011607Y007133D01*
X011544Y007069D01*
X011507Y006979D01*
X011507Y006448D01*
X011538Y006373D01*
X011507Y006298D01*
X011507Y006122D01*
X011574Y005959D01*
X011699Y005835D01*
X011707Y005831D01*
X011384Y005831D01*
X011284Y005931D01*
X011284Y005993D01*
X011364Y006073D01*
X011432Y006236D01*
X011432Y006412D01*
X011426Y006427D01*
X011436Y006452D01*
X011436Y006983D01*
X011398Y007073D01*
X011335Y007137D01*
X011339Y007151D01*
X011339Y007338D01*
X011042Y007338D01*
X011042Y007436D01*
X010944Y007436D01*
X010944Y007753D01*
X010776Y007753D01*
X010739Y007742D01*
X010704Y007723D01*
X010677Y007695D01*
X010657Y007661D01*
X010647Y007623D01*
X010647Y007436D01*
X010944Y007436D01*
X010944Y007338D01*
X010647Y007338D01*
X010647Y007151D01*
X010651Y007137D01*
X010587Y007073D01*
X010550Y006983D01*
X010550Y006452D01*
X010556Y006437D01*
X010546Y006412D01*
X010546Y006236D01*
X010613Y006073D01*
X010694Y005993D01*
X010694Y005750D01*
X010739Y005641D01*
X010794Y005586D01*
X010718Y005586D01*
X010628Y005549D01*
X010577Y005497D01*
X010203Y005497D01*
X010145Y005555D01*
X010055Y005593D01*
X009681Y005593D01*
X009591Y005555D01*
X009569Y005534D01*
X009337Y005534D01*
X009324Y005565D01*
X009255Y005634D01*
X009165Y005672D01*
X008949Y005672D01*
X008858Y005634D01*
X008801Y005577D01*
X008743Y005634D01*
X008653Y005672D01*
X008437Y005672D01*
X008347Y005634D01*
X008277Y005565D01*
X008240Y005474D01*
X008240Y004983D01*
X008252Y004953D01*
X008231Y004953D01*
X007790Y005394D01*
X007790Y005787D01*
X007753Y005877D01*
X007689Y005940D01*
X007693Y005954D01*
X007693Y006102D01*
X007426Y006102D01*
X007426Y006141D01*
X007693Y006141D01*
X007693Y006289D01*
X010546Y006289D01*
X010546Y006386D02*
X007638Y006386D01*
X007636Y006388D02*
X007602Y006408D01*
X007564Y006418D01*
X007426Y006418D01*
X007426Y006141D01*
X007386Y006141D01*
X007386Y006102D01*
X007119Y006102D01*
X007119Y005954D01*
X007123Y005940D01*
X007068Y005885D01*
X006936Y005885D01*
X006352Y006469D01*
X006383Y006546D01*
X006383Y007077D01*
X006346Y007167D01*
X006283Y007230D01*
X006287Y007244D01*
X006287Y007431D01*
X005990Y007431D01*
X005990Y007530D01*
X005891Y007530D01*
X005891Y007431D01*
X005595Y007431D01*
X005595Y007253D01*
X004295Y007253D01*
X004290Y007255D01*
X003500Y007255D01*
X003490Y007255D01*
X003490Y010269D01*
X004480Y010269D01*
X004480Y009279D01*
X004505Y009279D01*
X004529Y009221D01*
X004613Y009138D01*
X004721Y009093D01*
X005846Y009093D01*
X005964Y009093D01*
X006073Y009138D01*
X006156Y009221D01*
X006180Y009279D01*
X006383Y009279D01*
X006407Y009269D01*
X006654Y009269D01*
X006678Y009279D01*
X007383Y009279D01*
X007407Y009269D01*
X007654Y009269D01*
X007678Y009279D01*
X008383Y009279D01*
X008407Y009269D01*
X008654Y009269D01*
X008678Y009279D01*
X008880Y009279D01*
X008904Y009221D01*
X008988Y009138D01*
X009096Y009093D01*
X009214Y009093D01*
X015964Y009093D01*
X016073Y009138D01*
X016156Y009221D01*
X016180Y009279D01*
X016383Y009279D01*
X016407Y009269D01*
X016654Y009269D01*
X016678Y009279D01*
X016880Y009279D01*
X016904Y009221D01*
X016988Y009138D01*
X017096Y009093D01*
X017214Y009093D01*
X017964Y009093D01*
X018073Y009138D01*
X018156Y009221D01*
X018180Y009279D01*
X018383Y009279D01*
X018407Y009269D01*
X018654Y009269D01*
X018678Y009279D01*
X019383Y009279D01*
X019407Y009269D01*
X019654Y009269D01*
X019678Y009279D01*
X019870Y009279D01*
X019870Y005458D01*
X019870Y005458D01*
X019870Y005185D01*
X018471Y005185D01*
X018363Y005140D01*
X018279Y005057D01*
X017932Y004710D01*
X016908Y004710D01*
X016908Y004846D01*
X016591Y004846D01*
X016591Y004944D01*
X016493Y004944D01*
X016493Y005241D01*
X016306Y005241D01*
X016292Y005237D01*
X016255Y005274D01*
X016301Y005319D01*
X016315Y005315D01*
X016502Y005315D01*
X016502Y005612D01*
X016600Y005612D01*
X016600Y005315D01*
X016787Y005315D01*
X016825Y005326D01*
X016859Y005345D01*
X016887Y005373D01*
X016907Y005407D01*
X016917Y005445D01*
X016917Y005612D01*
X016601Y005612D01*
X016601Y005711D01*
X016917Y005711D01*
X016917Y005878D01*
X016907Y005916D01*
X016887Y005950D01*
X016859Y005978D01*
X016825Y005997D01*
X016787Y006007D01*
X016600Y006007D01*
X016600Y005711D01*
X016502Y005711D01*
X016502Y006007D01*
X016315Y006007D01*
X016301Y006004D01*
X016238Y006067D01*
X016147Y006104D01*
X015616Y006104D01*
X015605Y006100D01*
X015605Y006118D01*
X015605Y006319D01*
X015822Y006319D01*
X015822Y006645D01*
X015920Y006645D01*
X015920Y006743D01*
X016296Y006743D01*
X016296Y006899D01*
X016308Y006912D01*
X016318Y006902D01*
X016314Y006888D01*
X016314Y006701D01*
X016611Y006701D01*
X016611Y006603D01*
X016314Y006603D01*
X016314Y006416D01*
X016325Y006378D01*
X016344Y006344D01*
X016372Y006316D01*
X016406Y006296D01*
X016444Y006286D01*
X016611Y006286D01*
X016611Y006602D01*
X016710Y006602D01*
X016710Y006286D01*
X016877Y006286D01*
X016915Y006296D01*
X016949Y006316D01*
X016977Y006344D01*
X016996Y006378D01*
X017007Y006416D01*
X017007Y006603D01*
X016710Y006603D01*
X016710Y006701D01*
X017007Y006701D01*
X017007Y006888D01*
X017003Y006902D01*
X017066Y006965D01*
X017103Y007056D01*
X017103Y007587D01*
X017066Y007677D01*
X016997Y007746D01*
X016906Y007784D01*
X016415Y007784D01*
X016324Y007746D01*
X016311Y007733D01*
X016286Y007759D01*
X016195Y007796D01*
X015546Y007796D01*
X015456Y007759D01*
X015387Y007690D01*
X015357Y007619D01*
X015336Y007619D01*
X015228Y007574D01*
X015145Y007491D01*
X015143Y007489D01*
X015114Y007461D01*
X015114Y007570D01*
X015104Y007608D01*
X015085Y007642D01*
X015057Y007670D01*
X015023Y007689D01*
X014985Y007700D01*
X014739Y007700D01*
X014739Y007373D01*
X014641Y007373D01*
X014641Y007700D01*
X014394Y007700D01*
X014356Y007689D01*
X014322Y007670D01*
X014295Y007642D01*
X014275Y007608D01*
X014265Y007570D01*
X014265Y007373D01*
X014640Y007373D01*
X014640Y007275D01*
X014265Y007275D01*
X014265Y007119D01*
X014218Y007073D01*
X014174Y007117D01*
X014178Y007131D01*
X014178Y007318D01*
X013881Y007318D01*
X013881Y007416D01*
X014178Y007416D01*
X014178Y007603D01*
X014167Y007641D01*
X014148Y007675D01*
X014120Y007703D01*
X014086Y007723D01*
X014048Y007733D01*
X013881Y007733D01*
X013881Y007416D01*
X013782Y007416D01*
X013782Y007318D01*
X013485Y007318D01*
X013485Y007131D01*
X013489Y007117D01*
X013426Y007054D01*
X013389Y006963D01*
X013389Y006751D01*
X013326Y006751D01*
X013326Y006967D01*
X013288Y007058D01*
X013225Y007121D01*
X013229Y007135D01*
X013229Y007322D01*
X012932Y007322D01*
X012932Y007420D01*
X013229Y007420D01*
X013229Y007607D01*
X013219Y007645D01*
X013199Y007679D01*
X013171Y007707D01*
X013137Y007727D01*
X013099Y007737D01*
X012932Y007737D01*
X012932Y007420D01*
X012834Y007420D01*
X012834Y007737D01*
X012666Y007737D01*
X012628Y007727D01*
X012594Y007707D01*
X012566Y007679D01*
X012547Y007645D01*
X012537Y007607D01*
X012537Y007420D01*
X012833Y007420D01*
X012833Y007322D01*
X012537Y007322D01*
X012537Y007135D01*
X012540Y007121D01*
X012477Y007058D01*
X012440Y006967D01*
X012484Y007065D02*
X012357Y007065D01*
X012296Y007162D02*
X012537Y007162D01*
X012537Y007259D02*
X012296Y007259D01*
X012296Y007453D02*
X012537Y007453D01*
X012537Y007550D02*
X012296Y007550D01*
X012288Y007647D02*
X012548Y007647D01*
X012834Y007647D02*
X012932Y007647D01*
X012932Y007550D02*
X012834Y007550D01*
X012834Y007453D02*
X012932Y007453D01*
X012932Y007356D02*
X013782Y007356D01*
X013782Y007416D02*
X013485Y007416D01*
X013485Y007603D01*
X013496Y007641D01*
X013515Y007675D01*
X013543Y007703D01*
X013577Y007723D01*
X013615Y007733D01*
X013782Y007733D01*
X013782Y007416D01*
X013782Y007453D02*
X013881Y007453D01*
X013881Y007550D02*
X013782Y007550D01*
X013782Y007647D02*
X013881Y007647D01*
X014164Y007647D02*
X014299Y007647D01*
X014265Y007550D02*
X014178Y007550D01*
X014178Y007453D02*
X014265Y007453D01*
X014265Y007259D02*
X014178Y007259D01*
X014178Y007162D02*
X014265Y007162D01*
X014640Y007356D02*
X013881Y007356D01*
X013485Y007453D02*
X013229Y007453D01*
X013229Y007550D02*
X013485Y007550D01*
X013499Y007647D02*
X013218Y007647D01*
X013229Y007259D02*
X013485Y007259D01*
X013485Y007162D02*
X013229Y007162D01*
X013281Y007065D02*
X013437Y007065D01*
X013391Y006968D02*
X013325Y006968D01*
X013326Y006871D02*
X013389Y006871D01*
X013389Y006774D02*
X013326Y006774D01*
X012833Y007356D02*
X011999Y007356D01*
X011999Y007453D02*
X011900Y007453D01*
X011900Y007432D02*
X011900Y007749D01*
X011733Y007749D01*
X011695Y007738D01*
X011661Y007719D01*
X011633Y007691D01*
X011614Y007657D01*
X011604Y007619D01*
X011604Y007432D01*
X011900Y007432D01*
X011900Y007356D02*
X011042Y007356D01*
X010997Y007383D02*
X010993Y007387D01*
X010944Y007356D02*
X006287Y007356D01*
X006287Y007259D02*
X010647Y007259D01*
X010647Y007162D02*
X006348Y007162D01*
X006383Y007065D02*
X010584Y007065D01*
X010550Y006968D02*
X006383Y006968D01*
X006383Y006871D02*
X010550Y006871D01*
X010550Y006774D02*
X006383Y006774D01*
X006383Y006677D02*
X010550Y006677D01*
X010550Y006580D02*
X006383Y006580D01*
X006357Y006483D02*
X010550Y006483D01*
X010564Y006192D02*
X007693Y006192D01*
X007693Y006289D02*
X007683Y006326D01*
X007663Y006361D01*
X007636Y006388D01*
X007426Y006386D02*
X007386Y006386D01*
X007386Y006418D02*
X007249Y006418D01*
X007211Y006408D01*
X007177Y006388D01*
X007149Y006361D01*
X007129Y006326D01*
X007119Y006289D01*
X006532Y006289D01*
X006435Y006386D02*
X007174Y006386D01*
X007119Y006289D02*
X007119Y006141D01*
X007386Y006141D01*
X007386Y006418D01*
X007386Y006289D02*
X007426Y006289D01*
X007426Y006192D02*
X007386Y006192D01*
X007412Y006127D02*
X007406Y006121D01*
X007412Y006127D02*
X008638Y006127D01*
X008801Y005964D01*
X008801Y005229D01*
X008767Y005610D02*
X008835Y005610D01*
X009279Y005610D02*
X010769Y005610D01*
X010711Y005707D02*
X007790Y005707D01*
X007790Y005610D02*
X008323Y005610D01*
X008256Y005513D02*
X007790Y005513D01*
X007790Y005416D02*
X008240Y005416D01*
X008240Y005319D02*
X007864Y005319D01*
X007961Y005222D02*
X008240Y005222D01*
X008240Y005125D02*
X008058Y005125D01*
X008155Y005028D02*
X008240Y005028D01*
X008108Y004658D02*
X007409Y005357D01*
X007409Y005587D01*
X007406Y005590D01*
X006814Y005590D01*
X005938Y006466D01*
X005938Y006808D01*
X005941Y006811D01*
X005940Y006810D01*
X005661Y006363D02*
X005687Y006299D01*
X006646Y005340D01*
X006755Y005295D01*
X006872Y005295D01*
X007068Y005295D01*
X007129Y005234D01*
X007143Y005228D01*
X007159Y005190D01*
X007242Y005107D01*
X007941Y004408D01*
X008049Y004363D01*
X008167Y004363D01*
X008260Y004363D01*
X008277Y004322D01*
X008347Y004252D01*
X008437Y004215D01*
X008506Y004215D01*
X008506Y004103D01*
X008502Y004094D01*
X008502Y003976D01*
X008547Y003868D01*
X008630Y003785D01*
X008665Y003750D01*
X008748Y003667D01*
X008856Y003622D01*
X008882Y003622D01*
X008898Y003584D01*
X008967Y003515D01*
X009057Y003477D01*
X009588Y003477D01*
X009679Y003515D01*
X009742Y003578D01*
X009756Y003574D01*
X009943Y003574D01*
X009943Y003871D01*
X010041Y003871D01*
X010041Y003574D01*
X010228Y003574D01*
X010266Y003584D01*
X010300Y003604D01*
X010328Y003632D01*
X010348Y003666D01*
X010358Y003704D01*
X010358Y003871D01*
X010042Y003871D01*
X010042Y003969D01*
X010358Y003969D01*
X010358Y004072D01*
X011583Y004072D01*
X011692Y004117D01*
X011775Y004200D01*
X012071Y004496D01*
X012071Y004316D01*
X012071Y004315D01*
X012071Y004315D01*
X012071Y004119D01*
X012108Y004028D01*
X012116Y004020D01*
X012108Y004012D01*
X012071Y003921D01*
X012071Y003725D01*
X012108Y003635D01*
X012177Y003565D01*
X012268Y003528D01*
X012553Y003528D01*
X012553Y003243D01*
X012590Y003152D01*
X012660Y003083D01*
X012750Y003046D01*
X012946Y003046D01*
X012947Y003046D01*
X013143Y003046D01*
X013143Y003046D01*
X013143Y001539D01*
X013143Y001422D01*
X013188Y001313D01*
X013530Y000972D01*
X013613Y000889D01*
X013721Y000844D01*
X017131Y000844D01*
X017248Y000844D01*
X017357Y000889D01*
X018259Y001791D01*
X018372Y001791D01*
X018535Y001858D01*
X018660Y001983D01*
X018727Y002145D01*
X018727Y002322D01*
X018660Y002484D01*
X018535Y002609D01*
X018372Y002676D01*
X018196Y002676D01*
X018033Y002609D01*
X017909Y002484D01*
X017904Y002473D01*
X017888Y002512D01*
X017763Y002637D01*
X017601Y002704D01*
X017424Y002704D01*
X017262Y002637D01*
X017137Y002512D01*
X017070Y002349D01*
X017070Y002236D01*
X016859Y002025D01*
X015288Y002025D01*
X015317Y002054D01*
X015385Y002216D01*
X017050Y002216D01*
X017070Y002313D02*
X015385Y002313D01*
X015385Y002322D02*
X015526Y002322D01*
X015689Y002390D01*
X015813Y002514D01*
X015881Y002677D01*
X015881Y002853D01*
X015813Y003016D01*
X015733Y003096D01*
X015733Y003777D01*
X016270Y003240D01*
X016353Y003157D01*
X016461Y003112D01*
X018378Y003112D01*
X018476Y003014D01*
X018639Y002946D01*
X018815Y002946D01*
X018978Y003014D01*
X019103Y003138D01*
X019170Y003301D01*
X019170Y003477D01*
X019860Y003477D01*
X019860Y003574D02*
X019130Y003574D01*
X019103Y003640D02*
X019170Y003477D01*
X019170Y003380D02*
X019860Y003380D01*
X019860Y003283D02*
X019163Y003283D01*
X019122Y003186D02*
X019860Y003186D01*
X019860Y003089D02*
X019054Y003089D01*
X018926Y002992D02*
X019860Y002992D01*
X019860Y002895D02*
X015863Y002895D01*
X015881Y002798D02*
X019860Y002798D01*
X019860Y002701D02*
X017607Y002701D01*
X017418Y002701D02*
X015881Y002701D01*
X015850Y002604D02*
X017229Y002604D01*
X017135Y002507D02*
X015806Y002507D01*
X015709Y002410D02*
X017095Y002410D01*
X016953Y002119D02*
X015344Y002119D01*
X015385Y002216D02*
X015385Y002322D01*
X015438Y002765D02*
X015438Y003930D01*
X015348Y004020D01*
X014561Y004020D01*
X014561Y003823D02*
X014852Y003823D01*
X014934Y003741D01*
X014934Y002312D01*
X014942Y002304D01*
X014552Y003100D02*
X014552Y003430D01*
X014494Y003489D01*
X014226Y003489D01*
X014029Y003489D02*
X014029Y002370D01*
X014025Y002366D01*
X013636Y002079D02*
X013985Y001730D01*
X016981Y001730D01*
X017513Y002261D01*
X017796Y002604D02*
X018028Y002604D01*
X017931Y002507D02*
X017890Y002507D01*
X018284Y002234D02*
X017190Y001139D01*
X013780Y001139D01*
X013439Y001481D01*
X013439Y003489D01*
X013636Y003489D02*
X013636Y002079D01*
X013143Y002119D02*
X003490Y002119D01*
X003490Y002022D02*
X013143Y002022D01*
X013143Y001925D02*
X003490Y001925D01*
X003490Y001829D02*
X013143Y001829D01*
X013143Y001732D02*
X003490Y001732D01*
X003490Y001635D02*
X013143Y001635D01*
X013143Y001538D02*
X003490Y001538D01*
X003490Y001441D02*
X007241Y001441D01*
X007179Y001415D02*
X007005Y001240D01*
X006974Y001168D01*
X006929Y001230D01*
X006871Y001288D01*
X006804Y001337D01*
X006731Y001374D01*
X006653Y001399D01*
X006579Y001411D01*
X006579Y000939D01*
X006481Y000939D01*
X006481Y001411D01*
X006408Y001399D01*
X006329Y001374D01*
X006256Y001337D01*
X006189Y001288D01*
X006131Y001230D01*
X006083Y001163D01*
X006045Y001090D01*
X006020Y001012D01*
X006008Y000938D01*
X006481Y000938D01*
X006481Y000840D01*
X006008Y000840D01*
X006020Y000767D01*
X006045Y000688D01*
X006083Y000615D01*
X006131Y000548D01*
X006189Y000490D01*
X006235Y000457D01*
X003490Y000456D01*
X003490Y006367D01*
X003498Y006367D01*
X005650Y006367D01*
X005661Y006363D01*
X005697Y006289D02*
X003490Y006289D01*
X003490Y006192D02*
X005794Y006192D01*
X005891Y006095D02*
X003490Y006095D01*
X003490Y005998D02*
X005988Y005998D01*
X006085Y005901D02*
X003490Y005901D01*
X003490Y005804D02*
X006182Y005804D01*
X006279Y005707D02*
X003490Y005707D01*
X003490Y005610D02*
X006376Y005610D01*
X006473Y005513D02*
X003490Y005513D01*
X003490Y005416D02*
X006570Y005416D01*
X006695Y005319D02*
X003490Y005319D01*
X003490Y005222D02*
X007145Y005222D01*
X007223Y005125D02*
X003490Y005125D01*
X003490Y005028D02*
X007320Y005028D01*
X007417Y004931D02*
X003490Y004931D01*
X003490Y004835D02*
X007514Y004835D01*
X007611Y004738D02*
X003490Y004738D01*
X003490Y004641D02*
X007708Y004641D01*
X007805Y004544D02*
X003490Y004544D01*
X003490Y004447D02*
X007902Y004447D01*
X008108Y004658D02*
X008545Y004658D01*
X008801Y004658D02*
X008801Y004039D01*
X008797Y004035D01*
X008915Y003917D01*
X009320Y003917D01*
X009323Y003920D01*
X009320Y003923D01*
X009320Y004245D01*
X009442Y004367D01*
X011524Y004367D01*
X011964Y004807D01*
X012514Y004807D01*
X012514Y004611D02*
X012212Y004611D01*
X012056Y004454D01*
X012056Y004112D01*
X012146Y004021D01*
X012513Y004021D01*
X012514Y004020D01*
X012095Y004059D02*
X010358Y004059D01*
X010358Y003865D02*
X012071Y003865D01*
X012071Y003768D02*
X010358Y003768D01*
X010349Y003671D02*
X012093Y003671D01*
X012169Y003574D02*
X009738Y003574D01*
X009943Y003671D02*
X010041Y003671D01*
X010041Y003768D02*
X009943Y003768D01*
X009943Y003865D02*
X010041Y003865D01*
X010042Y003962D02*
X012087Y003962D01*
X012071Y004156D02*
X011730Y004156D01*
X011827Y004253D02*
X012071Y004253D01*
X012071Y004350D02*
X011924Y004350D01*
X012021Y004447D02*
X012071Y004447D01*
X011694Y004777D02*
X011451Y004777D01*
X011448Y004780D01*
X011694Y004777D02*
X011921Y005004D01*
X012514Y005004D01*
X012514Y005201D02*
X011447Y005201D01*
X011446Y005202D01*
X011262Y005536D02*
X010989Y005808D01*
X010989Y006324D01*
X010989Y006713D01*
X010993Y006718D01*
X011339Y007162D02*
X011604Y007162D01*
X011604Y007259D02*
X011339Y007259D01*
X011339Y007436D02*
X011339Y007623D01*
X011329Y007661D01*
X011309Y007695D01*
X011281Y007723D01*
X011247Y007742D01*
X011209Y007753D01*
X011042Y007753D01*
X011042Y007436D01*
X011339Y007436D01*
X011339Y007453D02*
X011604Y007453D01*
X011604Y007550D02*
X011339Y007550D01*
X011333Y007647D02*
X011611Y007647D01*
X011714Y007744D02*
X011243Y007744D01*
X011042Y007744D02*
X010944Y007744D01*
X010944Y007647D02*
X011042Y007647D01*
X011042Y007550D02*
X010944Y007550D01*
X010944Y007453D02*
X011042Y007453D01*
X010647Y007453D02*
X005990Y007453D01*
X005990Y007530D02*
X006287Y007530D01*
X006287Y007717D01*
X006276Y007755D01*
X006257Y007789D01*
X006229Y007816D01*
X006195Y007836D01*
X006157Y007846D01*
X005990Y007846D01*
X005990Y007530D01*
X005990Y007550D02*
X005891Y007550D01*
X005891Y007530D02*
X005891Y007846D01*
X005724Y007846D01*
X005686Y007836D01*
X005652Y007816D01*
X005624Y007789D01*
X005605Y007755D01*
X005595Y007717D01*
X005595Y007530D01*
X005891Y007530D01*
X005891Y007453D02*
X003490Y007453D01*
X003490Y007550D02*
X005595Y007550D01*
X005595Y007647D02*
X003490Y007647D01*
X003490Y007744D02*
X005602Y007744D01*
X005703Y007841D02*
X003490Y007841D01*
X003490Y007938D02*
X019870Y007938D01*
X019870Y008034D02*
X003490Y008034D01*
X003490Y008131D02*
X019870Y008131D01*
X019870Y008228D02*
X003490Y008228D01*
X003490Y008325D02*
X019870Y008325D01*
X019870Y008422D02*
X003490Y008422D01*
X003490Y008519D02*
X019870Y008519D01*
X019870Y008616D02*
X003490Y008616D01*
X003490Y008713D02*
X019870Y008713D01*
X019870Y008810D02*
X003490Y008810D01*
X003490Y008907D02*
X019870Y008907D01*
X019870Y009004D02*
X003490Y009004D01*
X003490Y009101D02*
X004702Y009101D01*
X004553Y009198D02*
X003490Y009198D01*
X003490Y009295D02*
X004480Y009295D01*
X004480Y009392D02*
X003490Y009392D01*
X003490Y009489D02*
X004480Y009489D01*
X004480Y009586D02*
X003490Y009586D01*
X003490Y009683D02*
X004480Y009683D01*
X004480Y009780D02*
X003490Y009780D01*
X003490Y009877D02*
X004480Y009877D01*
X004480Y009974D02*
X003490Y009974D01*
X003490Y010071D02*
X004480Y010071D01*
X004480Y010168D02*
X003490Y010168D01*
X003490Y010265D02*
X004480Y010265D01*
X005984Y009101D02*
X009077Y009101D01*
X008928Y009198D02*
X006133Y009198D01*
X006178Y007841D02*
X019870Y007841D01*
X019870Y007744D02*
X016999Y007744D01*
X017079Y007647D02*
X019870Y007647D01*
X019870Y007550D02*
X017103Y007550D01*
X017103Y007453D02*
X019870Y007453D01*
X019870Y007356D02*
X017103Y007356D01*
X017103Y007259D02*
X019870Y007259D01*
X019870Y007162D02*
X017103Y007162D01*
X017103Y007065D02*
X019870Y007065D01*
X019870Y006968D02*
X017067Y006968D01*
X017007Y006871D02*
X019870Y006871D01*
X019870Y006774D02*
X017007Y006774D01*
X017007Y006580D02*
X019870Y006580D01*
X019870Y006677D02*
X016710Y006677D01*
X016710Y006580D02*
X016611Y006580D01*
X016611Y006677D02*
X015920Y006677D01*
X015920Y006645D02*
X016296Y006645D01*
X016296Y006448D01*
X016285Y006410D01*
X016266Y006376D01*
X016238Y006348D01*
X016204Y006329D01*
X016166Y006319D01*
X015920Y006319D01*
X015920Y006645D01*
X015920Y006580D02*
X015822Y006580D01*
X015822Y006483D02*
X015920Y006483D01*
X015920Y006386D02*
X015822Y006386D01*
X015605Y006289D02*
X016433Y006289D01*
X016322Y006386D02*
X016271Y006386D01*
X016296Y006483D02*
X016314Y006483D01*
X016314Y006580D02*
X016296Y006580D01*
X016296Y006774D02*
X016314Y006774D01*
X016314Y006871D02*
X016296Y006871D01*
X016611Y006483D02*
X016710Y006483D01*
X016710Y006386D02*
X016611Y006386D01*
X016611Y006289D02*
X016710Y006289D01*
X016888Y006289D02*
X019870Y006289D01*
X019870Y006192D02*
X015605Y006192D01*
X015310Y006059D02*
X015200Y005949D01*
X014130Y005949D01*
X014029Y005848D01*
X014029Y005536D01*
X013586Y005093D02*
X013586Y004561D01*
X014118Y004561D01*
X014118Y004512D01*
X014118Y004512D01*
X014118Y004512D01*
X014118Y004463D01*
X013586Y004463D01*
X013586Y003931D01*
X013537Y003931D01*
X013537Y003931D01*
X013537Y003931D01*
X013488Y003931D01*
X013488Y004463D01*
X013586Y004463D01*
X013586Y004561D01*
X013488Y004561D01*
X013488Y004463D01*
X012956Y004463D01*
X012956Y004512D01*
X012936Y004561D01*
X013488Y004561D01*
X013488Y005093D01*
X013537Y005093D01*
X013537Y005093D01*
X013537Y005093D01*
X013586Y005093D01*
X013586Y005028D02*
X013488Y005028D01*
X013488Y004931D02*
X013586Y004931D01*
X013586Y004835D02*
X013488Y004835D01*
X013488Y004738D02*
X013586Y004738D01*
X013586Y004641D02*
X013488Y004641D01*
X013439Y004611D02*
X013537Y004512D01*
X013832Y004217D01*
X013832Y003489D01*
X013586Y003962D02*
X013488Y003962D01*
X013488Y004059D02*
X013586Y004059D01*
X013586Y004156D02*
X013488Y004156D01*
X013488Y004253D02*
X013586Y004253D01*
X013586Y004350D02*
X013488Y004350D01*
X013488Y004447D02*
X013586Y004447D01*
X013586Y004544D02*
X014118Y004544D01*
X014561Y004611D02*
X015169Y004611D01*
X015453Y004895D01*
X015873Y004895D01*
X015873Y004895D01*
X015710Y004217D02*
X016520Y003407D01*
X018709Y003407D01*
X018727Y003389D01*
X018414Y003702D02*
X016643Y003702D01*
X016227Y004118D01*
X017996Y004118D01*
X018114Y004118D01*
X018223Y004163D01*
X018653Y004593D01*
X019870Y004593D01*
X019870Y004340D01*
X019860Y004316D01*
X019860Y000460D01*
X007975Y000457D01*
X008056Y000538D01*
X008150Y000766D01*
X008150Y001012D01*
X008056Y001240D01*
X007881Y001415D01*
X007654Y001509D01*
X007407Y001509D01*
X007179Y001415D01*
X007108Y001344D02*
X006791Y001344D01*
X006913Y001247D02*
X007011Y001247D01*
X006579Y001247D02*
X006481Y001247D01*
X006481Y001344D02*
X006579Y001344D01*
X006579Y001150D02*
X006481Y001150D01*
X006481Y001053D02*
X006579Y001053D01*
X006579Y000956D02*
X006481Y000956D01*
X006481Y000859D02*
X003490Y000859D01*
X003490Y000956D02*
X006011Y000956D01*
X006033Y001053D02*
X003490Y001053D01*
X003490Y001150D02*
X006076Y001150D01*
X006148Y001247D02*
X003490Y001247D01*
X003490Y001344D02*
X006270Y001344D01*
X006021Y000762D02*
X003490Y000762D01*
X003490Y000665D02*
X006057Y000665D01*
X006117Y000568D02*
X003490Y000568D01*
X003490Y000471D02*
X006216Y000471D01*
X007819Y001441D02*
X013143Y001441D01*
X013176Y001344D02*
X007953Y001344D01*
X008050Y001247D02*
X013255Y001247D01*
X013352Y001150D02*
X008093Y001150D01*
X008134Y001053D02*
X013449Y001053D01*
X013546Y000956D02*
X008150Y000956D01*
X008150Y000859D02*
X013685Y000859D01*
X013143Y002216D02*
X003490Y002216D01*
X003490Y002313D02*
X013143Y002313D01*
X013143Y002410D02*
X003490Y002410D01*
X003490Y002507D02*
X013143Y002507D01*
X013143Y002604D02*
X003490Y002604D01*
X003490Y002701D02*
X013143Y002701D01*
X013143Y002798D02*
X003490Y002798D01*
X003490Y002895D02*
X013143Y002895D01*
X013143Y002992D02*
X003490Y002992D01*
X003490Y003089D02*
X012654Y003089D01*
X012576Y003186D02*
X003490Y003186D01*
X003490Y003283D02*
X012553Y003283D01*
X012553Y003380D02*
X003490Y003380D01*
X003490Y003477D02*
X012553Y003477D01*
X012947Y003046D02*
X012947Y003046D01*
X012943Y004544D02*
X013488Y004544D01*
X013146Y004612D02*
X013145Y004611D01*
X012514Y004611D01*
X012848Y005536D02*
X011262Y005536D01*
X010915Y005202D02*
X009871Y005202D01*
X009855Y005202D01*
X009828Y005229D01*
X009871Y005202D02*
X009868Y005199D01*
X010187Y005513D02*
X010593Y005513D01*
X010694Y005804D02*
X007783Y005804D01*
X007729Y005901D02*
X010694Y005901D01*
X010689Y005998D02*
X007693Y005998D01*
X007693Y006095D02*
X010604Y006095D01*
X011289Y005998D02*
X011558Y005998D01*
X011518Y006095D02*
X011373Y006095D01*
X011414Y006192D02*
X011507Y006192D01*
X011507Y006289D02*
X011432Y006289D01*
X011432Y006386D02*
X011532Y006386D01*
X011507Y006483D02*
X011436Y006483D01*
X011436Y006580D02*
X011507Y006580D01*
X011507Y006677D02*
X011436Y006677D01*
X011436Y006774D02*
X011507Y006774D01*
X011507Y006871D02*
X011436Y006871D01*
X011436Y006968D02*
X011507Y006968D01*
X011542Y007065D02*
X011402Y007065D01*
X011950Y006714D02*
X011950Y006210D01*
X011950Y006210D01*
X012666Y006210D01*
X013045Y005831D01*
X013045Y005536D01*
X013242Y005536D02*
X013242Y005981D01*
X012440Y006580D02*
X012393Y006580D01*
X011632Y005901D02*
X011314Y005901D01*
X010916Y004780D02*
X010346Y004780D01*
X010233Y004667D01*
X009869Y004667D01*
X009868Y004668D01*
X009819Y004668D01*
X009809Y004658D01*
X009868Y004668D02*
X009901Y004634D01*
X008908Y003574D02*
X003490Y003574D01*
X003490Y003671D02*
X008743Y003671D01*
X008646Y003768D02*
X003490Y003768D01*
X003490Y003865D02*
X008550Y003865D01*
X008508Y003962D02*
X003490Y003962D01*
X003490Y004059D02*
X008502Y004059D01*
X008506Y004156D02*
X003490Y004156D01*
X003490Y004253D02*
X008346Y004253D01*
X008266Y004350D02*
X003490Y004350D01*
X003490Y007259D02*
X005595Y007259D01*
X005595Y007356D02*
X003490Y007356D01*
X005891Y007647D02*
X005990Y007647D01*
X005990Y007744D02*
X005891Y007744D01*
X005891Y007841D02*
X005990Y007841D01*
X006279Y007744D02*
X010743Y007744D01*
X010653Y007647D02*
X006287Y007647D01*
X006287Y007550D02*
X010647Y007550D01*
X011900Y007550D02*
X011999Y007550D01*
X011999Y007647D02*
X011900Y007647D01*
X011900Y007744D02*
X011999Y007744D01*
X012185Y007744D02*
X015440Y007744D01*
X015369Y007647D02*
X015080Y007647D01*
X015114Y007550D02*
X015203Y007550D01*
X015145Y007491D02*
X015145Y007491D01*
X015143Y007489D02*
X015143Y007489D01*
X015310Y007239D02*
X015310Y006059D01*
X015284Y005616D02*
X015119Y005616D01*
X014938Y005434D01*
X014938Y004927D01*
X014819Y004807D01*
X014561Y004807D01*
X014561Y004217D02*
X015710Y004217D01*
X015733Y003768D02*
X015742Y003768D01*
X015733Y003671D02*
X015839Y003671D01*
X015936Y003574D02*
X015733Y003574D01*
X015733Y003477D02*
X016033Y003477D01*
X016130Y003380D02*
X015733Y003380D01*
X015733Y003283D02*
X016227Y003283D01*
X016324Y003186D02*
X015733Y003186D01*
X015740Y003089D02*
X018401Y003089D01*
X018528Y002992D02*
X015823Y002992D01*
X016577Y003768D02*
X018484Y003768D01*
X018476Y003765D02*
X018414Y003702D01*
X018476Y003765D02*
X018639Y003832D01*
X018815Y003832D01*
X018978Y003765D01*
X019103Y003640D01*
X019072Y003671D02*
X019860Y003671D01*
X019860Y003768D02*
X018970Y003768D01*
X018409Y004350D02*
X019870Y004350D01*
X019870Y004447D02*
X018506Y004447D01*
X018603Y004544D02*
X019870Y004544D01*
X019860Y004253D02*
X018312Y004253D01*
X018206Y004156D02*
X019860Y004156D01*
X019860Y004059D02*
X016286Y004059D01*
X016383Y003962D02*
X019860Y003962D01*
X019860Y003865D02*
X016480Y003865D01*
X016908Y004738D02*
X017960Y004738D01*
X018057Y004835D02*
X016908Y004835D01*
X016908Y004944D02*
X016908Y005111D01*
X016898Y005149D01*
X016878Y005183D01*
X016850Y005211D01*
X016816Y005231D01*
X016778Y005241D01*
X016591Y005241D01*
X016591Y004944D01*
X016908Y004944D01*
X016908Y005028D02*
X018251Y005028D01*
X018154Y004931D02*
X016591Y004931D01*
X016591Y005028D02*
X016493Y005028D01*
X016493Y005125D02*
X016591Y005125D01*
X016591Y005222D02*
X016493Y005222D01*
X016502Y005319D02*
X016600Y005319D01*
X016600Y005416D02*
X016502Y005416D01*
X016502Y005513D02*
X016600Y005513D01*
X016600Y005610D02*
X016502Y005610D01*
X016601Y005707D02*
X019870Y005707D01*
X019870Y005610D02*
X016917Y005610D01*
X016917Y005513D02*
X019870Y005513D01*
X019870Y005416D02*
X016909Y005416D01*
X016802Y005319D02*
X019870Y005319D01*
X019870Y005222D02*
X016831Y005222D01*
X016904Y005125D02*
X018348Y005125D01*
X016999Y006386D02*
X019870Y006386D01*
X019870Y006483D02*
X017007Y006483D01*
X016822Y005998D02*
X019870Y005998D01*
X019870Y005901D02*
X016911Y005901D01*
X016917Y005804D02*
X019870Y005804D01*
X019870Y006095D02*
X016170Y006095D01*
X016502Y005998D02*
X016600Y005998D01*
X016600Y005901D02*
X016502Y005901D01*
X016502Y005804D02*
X016600Y005804D01*
X015882Y005661D02*
X015836Y005616D01*
X015284Y005616D01*
X015879Y005659D02*
X015882Y005661D01*
X015874Y007321D02*
X015871Y007324D01*
X015395Y007324D01*
X015310Y007239D01*
X015874Y007321D02*
X016661Y007321D01*
X016322Y007744D02*
X016301Y007744D01*
X015984Y009101D02*
X017077Y009101D01*
X016928Y009198D02*
X016133Y009198D01*
X014739Y007647D02*
X014641Y007647D01*
X014641Y007550D02*
X014739Y007550D01*
X014739Y007453D02*
X014641Y007453D01*
X017984Y009101D02*
X019870Y009101D01*
X019870Y009198D02*
X018133Y009198D01*
X018540Y002604D02*
X019860Y002604D01*
X019860Y002507D02*
X018637Y002507D01*
X018690Y002410D02*
X019860Y002410D01*
X019860Y002313D02*
X018727Y002313D01*
X018727Y002216D02*
X019860Y002216D01*
X019860Y002119D02*
X018716Y002119D01*
X018676Y002022D02*
X019860Y002022D01*
X019860Y001925D02*
X018602Y001925D01*
X018463Y001829D02*
X019860Y001829D01*
X019860Y001732D02*
X018200Y001732D01*
X018103Y001635D02*
X019860Y001635D01*
X019860Y001538D02*
X018006Y001538D01*
X017909Y001441D02*
X019860Y001441D01*
X019860Y001344D02*
X017812Y001344D01*
X017715Y001247D02*
X019860Y001247D01*
X019860Y001150D02*
X017618Y001150D01*
X017521Y001053D02*
X019860Y001053D01*
X019860Y000956D02*
X017424Y000956D01*
X017285Y000859D02*
X019860Y000859D01*
X019860Y000762D02*
X008149Y000762D01*
X008108Y000665D02*
X019860Y000665D01*
X019860Y000568D02*
X008068Y000568D01*
X007989Y000471D02*
X019860Y000471D01*
X008630Y003785D02*
X008630Y003785D01*
X007084Y005901D02*
X006920Y005901D01*
X006823Y005998D02*
X007119Y005998D01*
X007119Y006095D02*
X006726Y006095D01*
X006629Y006192D02*
X007119Y006192D01*
D23*
X006998Y008811D03*
X008072Y008827D03*
X010989Y006324D03*
X011950Y006210D03*
X013351Y006308D03*
X013530Y004514D03*
X014552Y003100D03*
X014942Y002304D03*
X015438Y002765D03*
X017513Y002261D03*
X018284Y002234D03*
X018727Y003389D03*
X019348Y005689D03*
X015284Y005616D03*
X014742Y008350D03*
X004201Y006812D03*
X003795Y006021D03*
X003783Y005501D03*
X003795Y004958D03*
X003783Y004427D03*
X003779Y003823D03*
X003757Y003222D03*
X003709Y007705D03*
X003722Y008252D03*
X003734Y008804D03*
X003734Y009311D03*
X003742Y009835D03*
D24*
X009057Y005229D02*
X009828Y005229D01*
X009809Y004658D02*
X009057Y004658D01*
D25*
X003410Y006653D02*
X001324Y006653D01*
X001324Y000393D01*
X000349Y000393D01*
X000345Y009763D01*
X003408Y009763D01*
X003457Y009645D01*
X003510Y009591D01*
X003510Y009563D01*
X003449Y009502D01*
X003398Y009378D01*
X003398Y009245D01*
X003449Y009121D01*
X003510Y009060D01*
X003510Y009055D01*
X003449Y008994D01*
X003398Y008871D01*
X003398Y008737D01*
X003449Y008613D01*
X003480Y008582D01*
X001324Y008582D01*
X001324Y006988D01*
X003410Y006988D01*
X003410Y006653D01*
X003410Y006690D02*
X000346Y006690D01*
X000346Y006613D02*
X001324Y006613D01*
X001324Y006536D02*
X000347Y006536D01*
X000347Y006458D02*
X001324Y006458D01*
X001324Y006381D02*
X000347Y006381D01*
X000347Y006304D02*
X001324Y006304D01*
X001324Y006226D02*
X000347Y006226D01*
X000347Y006149D02*
X001324Y006149D01*
X001324Y006072D02*
X000347Y006072D01*
X000347Y005995D02*
X001324Y005995D01*
X001324Y005917D02*
X000347Y005917D01*
X000347Y005840D02*
X001324Y005840D01*
X001324Y005763D02*
X000347Y005763D01*
X000347Y005685D02*
X001324Y005685D01*
X001324Y005608D02*
X000347Y005608D01*
X000347Y005531D02*
X001324Y005531D01*
X001324Y005454D02*
X000347Y005454D01*
X000347Y005376D02*
X001324Y005376D01*
X001324Y005299D02*
X000347Y005299D01*
X000347Y005222D02*
X001324Y005222D01*
X001324Y005144D02*
X000347Y005144D01*
X000347Y005067D02*
X001324Y005067D01*
X001324Y004990D02*
X000347Y004990D01*
X000347Y004913D02*
X001324Y004913D01*
X001324Y004835D02*
X000347Y004835D01*
X000347Y004758D02*
X001324Y004758D01*
X001324Y004681D02*
X000347Y004681D01*
X000347Y004603D02*
X001324Y004603D01*
X001324Y004526D02*
X000347Y004526D01*
X000348Y004449D02*
X001324Y004449D01*
X001324Y004372D02*
X000348Y004372D01*
X000348Y004294D02*
X001324Y004294D01*
X001324Y004217D02*
X000348Y004217D01*
X000348Y004140D02*
X001324Y004140D01*
X001324Y004062D02*
X000348Y004062D01*
X000348Y003985D02*
X001324Y003985D01*
X001324Y003908D02*
X000348Y003908D01*
X000348Y003831D02*
X001324Y003831D01*
X001324Y003753D02*
X000348Y003753D01*
X000348Y003676D02*
X001324Y003676D01*
X001324Y003599D02*
X000348Y003599D01*
X000348Y003521D02*
X001324Y003521D01*
X001324Y003444D02*
X000348Y003444D01*
X000348Y003367D02*
X001324Y003367D01*
X001324Y003290D02*
X000348Y003290D01*
X000348Y003212D02*
X001324Y003212D01*
X001324Y003135D02*
X000348Y003135D01*
X000348Y003058D02*
X001324Y003058D01*
X001324Y002980D02*
X000348Y002980D01*
X000348Y002903D02*
X001324Y002903D01*
X001324Y002826D02*
X000348Y002826D01*
X000348Y002749D02*
X001324Y002749D01*
X001324Y002671D02*
X000348Y002671D01*
X000348Y002594D02*
X001324Y002594D01*
X001324Y002517D02*
X000348Y002517D01*
X000349Y002439D02*
X001324Y002439D01*
X001324Y002362D02*
X000349Y002362D01*
X000349Y002285D02*
X001324Y002285D01*
X001324Y002208D02*
X000349Y002208D01*
X000349Y002130D02*
X001324Y002130D01*
X001324Y002053D02*
X000349Y002053D01*
X000349Y001976D02*
X001324Y001976D01*
X001324Y001899D02*
X000349Y001899D01*
X000349Y001821D02*
X001324Y001821D01*
X001324Y001744D02*
X000349Y001744D01*
X000349Y001667D02*
X001324Y001667D01*
X001324Y001589D02*
X000349Y001589D01*
X000349Y001512D02*
X001324Y001512D01*
X001324Y001435D02*
X000349Y001435D01*
X000349Y001358D02*
X001324Y001358D01*
X001324Y001280D02*
X000349Y001280D01*
X000349Y001203D02*
X001324Y001203D01*
X001324Y001126D02*
X000349Y001126D01*
X000349Y001048D02*
X001324Y001048D01*
X001324Y000971D02*
X000349Y000971D01*
X000349Y000894D02*
X001324Y000894D01*
X001324Y000817D02*
X000349Y000817D01*
X000349Y000739D02*
X001324Y000739D01*
X001324Y000662D02*
X000349Y000662D01*
X000349Y000585D02*
X001324Y000585D01*
X001324Y000507D02*
X000349Y000507D01*
X000349Y000430D02*
X001324Y000430D01*
X000346Y006767D02*
X003410Y006767D01*
X003410Y006845D02*
X000346Y006845D01*
X000346Y006922D02*
X003410Y006922D01*
X003445Y008622D02*
X000346Y008622D01*
X000346Y008545D02*
X001324Y008545D01*
X001324Y008468D02*
X000346Y008468D01*
X000346Y008390D02*
X001324Y008390D01*
X001324Y008313D02*
X000346Y008313D01*
X000346Y008236D02*
X001324Y008236D01*
X001324Y008158D02*
X000346Y008158D01*
X000346Y008081D02*
X001324Y008081D01*
X001324Y008004D02*
X000346Y008004D01*
X000346Y007927D02*
X001324Y007927D01*
X001324Y007849D02*
X000346Y007849D01*
X000346Y007772D02*
X001324Y007772D01*
X001324Y007695D02*
X000346Y007695D01*
X000346Y007617D02*
X001324Y007617D01*
X001324Y007540D02*
X000346Y007540D01*
X000346Y007463D02*
X001324Y007463D01*
X001324Y007386D02*
X000346Y007386D01*
X000346Y007308D02*
X001324Y007308D01*
X001324Y007231D02*
X000346Y007231D01*
X000346Y007154D02*
X001324Y007154D01*
X001324Y007076D02*
X000346Y007076D01*
X000346Y006999D02*
X001324Y006999D01*
X000345Y008699D02*
X003413Y008699D01*
X003398Y008777D02*
X000345Y008777D01*
X000345Y008854D02*
X003398Y008854D01*
X003423Y008931D02*
X000345Y008931D01*
X000345Y009009D02*
X003463Y009009D01*
X003484Y009086D02*
X000345Y009086D01*
X000345Y009163D02*
X003431Y009163D01*
X003399Y009240D02*
X000345Y009240D01*
X000345Y009318D02*
X003398Y009318D01*
X003405Y009395D02*
X000345Y009395D01*
X000345Y009472D02*
X003437Y009472D01*
X003497Y009550D02*
X000345Y009550D01*
X000345Y009627D02*
X003475Y009627D01*
X003432Y009704D02*
X000345Y009704D01*
D26*
X003412Y006812D02*
X003410Y006810D01*
X003410Y006810D01*
X005940Y006810D01*
X004201Y006812D02*
X003412Y006812D01*
M02*
