G75*
G70*
%OFA0B0*%
%FSLAX24Y24*%
%IPPOS*%
%LPD*%
%AMOC8*
5,1,8,0,0,1.08239X$1,22.5*
%
%ADD10C,0.0100*%
%ADD11R,0.0236X0.0236*%
%ADD12C,0.0748*%
%ADD13C,0.0394*%
%ADD14C,0.0098*%
%ADD15C,0.0157*%
%ADD16C,0.0079*%
%ADD17C,0.0394*%
D10*
X000160Y000159D02*
X000155Y010589D01*
X004780Y010589D01*
X004780Y009389D01*
X005905Y009389D01*
X005905Y010589D01*
X009155Y010585D01*
X009155Y009389D01*
X015905Y009389D01*
X015905Y010589D01*
X017155Y010589D01*
X017155Y009389D01*
X017905Y009389D01*
X017905Y010589D01*
X020166Y010589D01*
X020166Y005517D01*
X021229Y005517D01*
X021229Y004257D01*
X020156Y004257D01*
X020156Y000164D01*
X000160Y000159D01*
D11*
X003410Y006810D03*
D12*
X006530Y009889D03*
X007530Y009889D03*
X008530Y009889D03*
X016530Y009889D03*
X018530Y009889D03*
X019530Y009889D03*
X020530Y004889D03*
X007530Y000889D03*
X006530Y000889D03*
D13*
X003757Y003222D03*
X003779Y003823D03*
X003783Y004427D03*
X003795Y004958D03*
X003783Y005501D03*
X003795Y006021D03*
X004201Y006812D03*
X003709Y007705D03*
X003722Y008252D03*
X003734Y008804D03*
X003734Y009311D03*
X003742Y009835D03*
X006998Y008811D03*
X008072Y008827D03*
X010989Y006324D03*
X011950Y006210D03*
X013351Y006308D03*
X013530Y004514D03*
X014552Y003100D03*
X014942Y002304D03*
X015438Y002765D03*
X017513Y002261D03*
X018284Y002234D03*
X018727Y003389D03*
X019348Y005689D03*
X015284Y005616D03*
X014742Y008350D03*
D14*
X015964Y009093D02*
X016073Y009138D01*
X016156Y009221D01*
X016180Y009279D01*
X016383Y009279D01*
X016407Y009269D01*
X016489Y009269D01*
X017217Y008540D01*
X017217Y002592D01*
X017137Y002512D01*
X017070Y002349D01*
X017070Y002173D01*
X017137Y002010D01*
X017262Y001886D01*
X017424Y001818D01*
X017601Y001818D01*
X017763Y001886D01*
X017888Y002010D01*
X017893Y002022D01*
X017909Y001983D01*
X018033Y001858D01*
X018196Y001791D01*
X018372Y001791D01*
X018535Y001858D01*
X018660Y001983D01*
X018727Y002145D01*
X018727Y002322D01*
X018660Y002484D01*
X018579Y002565D01*
X018579Y002971D01*
X018639Y002946D01*
X018815Y002946D01*
X018978Y003014D01*
X019103Y003138D01*
X019170Y003301D01*
X019170Y003477D01*
X019860Y003477D01*
X019860Y003574D02*
X019130Y003574D01*
X019103Y003640D02*
X019170Y003477D01*
X019170Y003380D02*
X019860Y003380D01*
X019860Y003283D02*
X019163Y003283D01*
X019122Y003186D02*
X019860Y003186D01*
X019860Y003089D02*
X019054Y003089D01*
X018926Y002992D02*
X019860Y002992D01*
X019860Y002895D02*
X018579Y002895D01*
X018579Y002798D02*
X019860Y002798D01*
X019860Y002701D02*
X018579Y002701D01*
X018579Y002604D02*
X019860Y002604D01*
X019860Y002507D02*
X018637Y002507D01*
X018690Y002410D02*
X019860Y002410D01*
X019860Y002313D02*
X018727Y002313D01*
X018727Y002216D02*
X019860Y002216D01*
X019860Y002119D02*
X018716Y002119D01*
X018676Y002022D02*
X019860Y002022D01*
X019860Y001925D02*
X018602Y001925D01*
X018463Y001829D02*
X019860Y001829D01*
X019860Y001732D02*
X016052Y001732D01*
X016149Y001829D02*
X017400Y001829D01*
X017222Y001925D02*
X016246Y001925D01*
X016280Y001959D02*
X016329Y002078D01*
X016329Y004830D01*
X016329Y004960D01*
X016280Y005079D01*
X015727Y005632D01*
X015727Y005704D01*
X015660Y005866D01*
X015535Y005991D01*
X015372Y006058D01*
X015196Y006058D01*
X015033Y005991D01*
X014909Y005866D01*
X014841Y005704D01*
X014841Y005527D01*
X014909Y005365D01*
X014959Y005314D01*
X014959Y003936D01*
X012274Y003936D01*
X012274Y005908D01*
X012325Y005959D01*
X012392Y006122D01*
X012392Y006298D01*
X012375Y006340D01*
X012902Y006340D01*
X012908Y006334D01*
X012908Y006220D01*
X012976Y006058D01*
X013100Y005933D01*
X013263Y005866D01*
X013439Y005866D01*
X013602Y005933D01*
X013727Y006058D01*
X013794Y006220D01*
X013794Y006397D01*
X013727Y006559D01*
X013602Y006684D01*
X013439Y006751D01*
X013326Y006751D01*
X013192Y006885D01*
X013083Y006930D01*
X012966Y006930D01*
X011186Y006930D01*
X011078Y006885D01*
X010994Y006802D01*
X010959Y006767D01*
X010901Y006767D01*
X010738Y006700D01*
X010613Y006575D01*
X010546Y006412D01*
X010546Y006236D01*
X010613Y006073D01*
X010738Y005949D01*
X010901Y005881D01*
X011077Y005881D01*
X011240Y005949D01*
X011364Y006073D01*
X011432Y006236D01*
X011432Y006340D01*
X011524Y006340D01*
X011507Y006298D01*
X011507Y006122D01*
X011574Y005959D01*
X011625Y005908D01*
X011625Y003838D01*
X011625Y003708D01*
X011674Y003589D01*
X011836Y003428D01*
X011868Y003395D01*
X011013Y003395D01*
X008831Y005576D01*
X008831Y009279D01*
X008880Y009279D01*
X008904Y009221D01*
X008988Y009138D01*
X009096Y009093D01*
X009214Y009093D01*
X015964Y009093D01*
X015984Y009101D02*
X016657Y009101D01*
X016754Y009004D02*
X008831Y009004D01*
X008831Y008907D02*
X016850Y008907D01*
X016947Y008810D02*
X008831Y008810D01*
X008831Y008713D02*
X017044Y008713D01*
X017141Y008616D02*
X008831Y008616D01*
X008831Y008519D02*
X017217Y008519D01*
X017217Y008422D02*
X008831Y008422D01*
X008831Y008325D02*
X017217Y008325D01*
X017217Y008228D02*
X008831Y008228D01*
X008831Y008131D02*
X017217Y008131D01*
X017217Y008034D02*
X008831Y008034D01*
X008831Y007938D02*
X017217Y007938D01*
X017217Y007841D02*
X008831Y007841D01*
X008831Y007744D02*
X017217Y007744D01*
X017217Y007647D02*
X008831Y007647D01*
X008831Y007550D02*
X017217Y007550D01*
X017217Y007453D02*
X008831Y007453D01*
X008831Y007356D02*
X017217Y007356D01*
X017217Y007259D02*
X008831Y007259D01*
X008831Y007162D02*
X017217Y007162D01*
X017217Y007065D02*
X008831Y007065D01*
X008831Y006968D02*
X017217Y006968D01*
X017217Y006871D02*
X013206Y006871D01*
X013303Y006774D02*
X017217Y006774D01*
X017217Y006677D02*
X013609Y006677D01*
X013706Y006580D02*
X017217Y006580D01*
X017217Y006483D02*
X013758Y006483D01*
X013794Y006386D02*
X017217Y006386D01*
X017217Y006289D02*
X013794Y006289D01*
X013782Y006192D02*
X017217Y006192D01*
X017217Y006095D02*
X013742Y006095D01*
X013667Y005998D02*
X015051Y005998D01*
X014944Y005901D02*
X013525Y005901D01*
X013177Y005901D02*
X012274Y005901D01*
X012274Y005804D02*
X014883Y005804D01*
X014843Y005707D02*
X012274Y005707D01*
X012274Y005610D02*
X014841Y005610D01*
X014847Y005513D02*
X012274Y005513D01*
X012274Y005416D02*
X014887Y005416D01*
X014954Y005319D02*
X012274Y005319D01*
X012274Y005222D02*
X014959Y005222D01*
X014959Y005125D02*
X012274Y005125D01*
X012274Y005028D02*
X014959Y005028D01*
X014959Y004931D02*
X012274Y004931D01*
X012274Y004835D02*
X014959Y004835D01*
X014959Y004738D02*
X012274Y004738D01*
X012274Y004641D02*
X014959Y004641D01*
X014959Y004544D02*
X012274Y004544D01*
X012274Y004447D02*
X014959Y004447D01*
X014959Y004350D02*
X012274Y004350D01*
X012274Y004253D02*
X014959Y004253D01*
X014959Y004156D02*
X012274Y004156D01*
X012274Y004059D02*
X014959Y004059D01*
X014959Y003962D02*
X012274Y003962D01*
X011786Y003477D02*
X010931Y003477D01*
X010834Y003574D02*
X011689Y003574D01*
X011640Y003671D02*
X010737Y003671D01*
X010640Y003768D02*
X011625Y003768D01*
X011625Y003865D02*
X010543Y003865D01*
X010446Y003962D02*
X011625Y003962D01*
X011625Y004059D02*
X010349Y004059D01*
X010252Y004156D02*
X011625Y004156D01*
X011625Y004253D02*
X010155Y004253D01*
X010058Y004350D02*
X011625Y004350D01*
X011625Y004447D02*
X009961Y004447D01*
X009864Y004544D02*
X011625Y004544D01*
X011625Y004641D02*
X009767Y004641D01*
X009670Y004738D02*
X011625Y004738D01*
X011625Y004835D02*
X009573Y004835D01*
X009476Y004931D02*
X011625Y004931D01*
X011625Y005028D02*
X009379Y005028D01*
X009282Y005125D02*
X011625Y005125D01*
X011625Y005222D02*
X009185Y005222D01*
X009088Y005319D02*
X011625Y005319D01*
X011625Y005416D02*
X008991Y005416D01*
X008894Y005513D02*
X011625Y005513D01*
X011625Y005610D02*
X008831Y005610D01*
X008831Y005707D02*
X011625Y005707D01*
X011625Y005804D02*
X008831Y005804D01*
X008831Y005901D02*
X010853Y005901D01*
X010689Y005998D02*
X008831Y005998D01*
X008831Y006095D02*
X010604Y006095D01*
X010564Y006192D02*
X008831Y006192D01*
X008831Y006289D02*
X010546Y006289D01*
X010546Y006386D02*
X008831Y006386D01*
X008831Y006483D02*
X010575Y006483D01*
X010618Y006580D02*
X008831Y006580D01*
X008831Y006677D02*
X010715Y006677D01*
X010966Y006774D02*
X008831Y006774D01*
X008831Y006871D02*
X011063Y006871D01*
X010994Y006802D02*
X010994Y006802D01*
X011245Y006635D02*
X011005Y006395D01*
X011005Y006340D01*
X010989Y006324D01*
X011245Y006635D02*
X013024Y006635D01*
X013351Y006308D01*
X013035Y005998D02*
X012341Y005998D01*
X012381Y006095D02*
X012960Y006095D01*
X012920Y006192D02*
X012392Y006192D01*
X012392Y006289D02*
X012908Y006289D01*
X011625Y005901D02*
X011125Y005901D01*
X011289Y005998D02*
X011558Y005998D01*
X011518Y006095D02*
X011373Y006095D01*
X011414Y006192D02*
X011507Y006192D01*
X011507Y006289D02*
X011432Y006289D01*
X009077Y009101D02*
X008831Y009101D01*
X008831Y009198D02*
X008928Y009198D01*
X008536Y009883D02*
X008530Y009889D01*
X008536Y009883D02*
X008536Y005454D01*
X010890Y003100D01*
X014552Y003100D01*
X014942Y002304D02*
X010296Y002304D01*
X006532Y006068D01*
X006532Y009887D01*
X006530Y009889D01*
X006237Y009279D02*
X006237Y006009D01*
X006282Y005901D01*
X006365Y005818D01*
X009975Y002208D01*
X009888Y002208D01*
X009759Y002208D01*
X009640Y002159D01*
X008695Y001214D01*
X008067Y001214D01*
X008056Y001240D01*
X007881Y001415D01*
X007654Y001509D01*
X007407Y001509D01*
X007179Y001415D01*
X007005Y001240D01*
X006974Y001168D01*
X006929Y001230D01*
X006871Y001288D01*
X006804Y001337D01*
X006731Y001374D01*
X006653Y001399D01*
X006579Y001411D01*
X006579Y000939D01*
X006481Y000939D01*
X006481Y001411D01*
X006408Y001399D01*
X006329Y001374D01*
X006256Y001337D01*
X006189Y001288D01*
X006131Y001230D01*
X006083Y001163D01*
X006045Y001090D01*
X006020Y001012D01*
X006008Y000938D01*
X006481Y000938D01*
X006481Y000840D01*
X006008Y000840D01*
X006020Y000767D01*
X006045Y000688D01*
X006083Y000615D01*
X006131Y000548D01*
X006189Y000490D01*
X006235Y000457D01*
X003490Y000456D01*
X003490Y006367D01*
X004111Y006367D01*
X004288Y006367D01*
X004450Y006435D01*
X004577Y006561D01*
X004644Y006724D01*
X004644Y006900D01*
X004577Y007063D01*
X004452Y007188D01*
X004290Y007255D01*
X004113Y007255D01*
X004109Y007253D01*
X003490Y007253D01*
X003490Y010269D01*
X004480Y010269D01*
X004480Y009279D01*
X004505Y009279D01*
X004529Y009221D01*
X004613Y009138D01*
X004721Y009093D01*
X005846Y009093D01*
X005964Y009093D01*
X006073Y009138D01*
X006156Y009221D01*
X006180Y009279D01*
X006237Y009279D01*
X006237Y009198D02*
X006133Y009198D01*
X006237Y009101D02*
X005984Y009101D01*
X006237Y009004D02*
X003490Y009004D01*
X003490Y008907D02*
X006237Y008907D01*
X006237Y008810D02*
X003490Y008810D01*
X003490Y008713D02*
X006237Y008713D01*
X006237Y008616D02*
X003490Y008616D01*
X003490Y008519D02*
X006237Y008519D01*
X006237Y008422D02*
X003490Y008422D01*
X003490Y008325D02*
X006237Y008325D01*
X006237Y008228D02*
X003490Y008228D01*
X003490Y008131D02*
X006237Y008131D01*
X006237Y008034D02*
X003490Y008034D01*
X003490Y007938D02*
X006237Y007938D01*
X006237Y007841D02*
X003490Y007841D01*
X003490Y007744D02*
X006237Y007744D01*
X006237Y007647D02*
X003490Y007647D01*
X003490Y007550D02*
X006237Y007550D01*
X006237Y007453D02*
X003490Y007453D01*
X003490Y007356D02*
X006237Y007356D01*
X006237Y007259D02*
X003490Y007259D01*
X003490Y006289D02*
X006237Y006289D01*
X006237Y006192D02*
X003490Y006192D01*
X003490Y006095D02*
X006237Y006095D01*
X006242Y005998D02*
X003490Y005998D01*
X003490Y005901D02*
X006282Y005901D01*
X006379Y005804D02*
X003490Y005804D01*
X003490Y005707D02*
X006476Y005707D01*
X006573Y005610D02*
X003490Y005610D01*
X003490Y005513D02*
X006670Y005513D01*
X006767Y005416D02*
X003490Y005416D01*
X003490Y005319D02*
X006864Y005319D01*
X006960Y005222D02*
X003490Y005222D01*
X003490Y005125D02*
X007057Y005125D01*
X007154Y005028D02*
X003490Y005028D01*
X003490Y004931D02*
X007251Y004931D01*
X007348Y004835D02*
X003490Y004835D01*
X003490Y004738D02*
X007445Y004738D01*
X007542Y004641D02*
X003490Y004641D01*
X003490Y004544D02*
X007639Y004544D01*
X007736Y004447D02*
X003490Y004447D01*
X003490Y004350D02*
X007833Y004350D01*
X007930Y004253D02*
X003490Y004253D01*
X003490Y004156D02*
X008027Y004156D01*
X008124Y004059D02*
X003490Y004059D01*
X003490Y003962D02*
X008221Y003962D01*
X008318Y003865D02*
X003490Y003865D01*
X003490Y003768D02*
X008415Y003768D01*
X008512Y003671D02*
X003490Y003671D01*
X003490Y003574D02*
X008609Y003574D01*
X008706Y003477D02*
X003490Y003477D01*
X003490Y003380D02*
X008803Y003380D01*
X008900Y003283D02*
X003490Y003283D01*
X003490Y003186D02*
X008997Y003186D01*
X009094Y003089D02*
X003490Y003089D01*
X003490Y002992D02*
X009191Y002992D01*
X009288Y002895D02*
X003490Y002895D01*
X003490Y002798D02*
X009385Y002798D01*
X009482Y002701D02*
X003490Y002701D01*
X003490Y002604D02*
X009579Y002604D01*
X009676Y002507D02*
X003490Y002507D01*
X003490Y002410D02*
X009773Y002410D01*
X009870Y002313D02*
X003490Y002313D01*
X003490Y002216D02*
X009966Y002216D01*
X009600Y002119D02*
X003490Y002119D01*
X003490Y002022D02*
X009503Y002022D01*
X009406Y001925D02*
X003490Y001925D01*
X003490Y001829D02*
X009309Y001829D01*
X009213Y001732D02*
X003490Y001732D01*
X003490Y001635D02*
X009116Y001635D01*
X009019Y001538D02*
X003490Y001538D01*
X003490Y001441D02*
X007241Y001441D01*
X007108Y001344D02*
X006791Y001344D01*
X006913Y001247D02*
X007011Y001247D01*
X006579Y001247D02*
X006481Y001247D01*
X006481Y001344D02*
X006579Y001344D01*
X006579Y001150D02*
X006481Y001150D01*
X006481Y001053D02*
X006579Y001053D01*
X006579Y000956D02*
X006481Y000956D01*
X006481Y000859D02*
X003490Y000859D01*
X003490Y000956D02*
X006011Y000956D01*
X006033Y001053D02*
X003490Y001053D01*
X003490Y001150D02*
X006076Y001150D01*
X006148Y001247D02*
X003490Y001247D01*
X003490Y001344D02*
X006270Y001344D01*
X006021Y000762D02*
X003490Y000762D01*
X003490Y000665D02*
X006057Y000665D01*
X006117Y000568D02*
X003490Y000568D01*
X003490Y000471D02*
X006216Y000471D01*
X007819Y001441D02*
X008922Y001441D01*
X008825Y001344D02*
X007953Y001344D01*
X008050Y001247D02*
X008728Y001247D01*
X009161Y000762D02*
X019860Y000762D01*
X019860Y000859D02*
X009258Y000859D01*
X009355Y000956D02*
X019860Y000956D01*
X019860Y001053D02*
X009452Y001053D01*
X009549Y001150D02*
X019860Y001150D01*
X019860Y001247D02*
X009646Y001247D01*
X009743Y001344D02*
X019860Y001344D01*
X019860Y001441D02*
X009840Y001441D01*
X009937Y001538D02*
X019860Y001538D01*
X019860Y001635D02*
X015955Y001635D01*
X015929Y001608D02*
X016189Y001868D01*
X016280Y001959D01*
X016306Y002022D02*
X017132Y002022D01*
X017092Y002119D02*
X016329Y002119D01*
X016329Y002216D02*
X017070Y002216D01*
X017070Y002313D02*
X016329Y002313D01*
X016329Y002410D02*
X017095Y002410D01*
X017135Y002507D02*
X016329Y002507D01*
X016329Y002604D02*
X017217Y002604D01*
X017217Y002701D02*
X016329Y002701D01*
X016329Y002798D02*
X017217Y002798D01*
X017217Y002895D02*
X016329Y002895D01*
X016329Y002992D02*
X017217Y002992D01*
X017217Y003089D02*
X016329Y003089D01*
X016329Y003186D02*
X017217Y003186D01*
X017217Y003283D02*
X016329Y003283D01*
X016329Y003380D02*
X017217Y003380D01*
X017217Y003477D02*
X016329Y003477D01*
X016329Y003574D02*
X017217Y003574D01*
X017217Y003671D02*
X016329Y003671D01*
X016329Y003768D02*
X017217Y003768D01*
X017217Y003865D02*
X016329Y003865D01*
X016329Y003962D02*
X017217Y003962D01*
X017217Y004059D02*
X016329Y004059D01*
X016329Y004156D02*
X017217Y004156D01*
X017217Y004253D02*
X016329Y004253D01*
X016329Y004350D02*
X017217Y004350D01*
X017217Y004447D02*
X016329Y004447D01*
X016329Y004544D02*
X017217Y004544D01*
X017217Y004641D02*
X016329Y004641D01*
X016329Y004738D02*
X017217Y004738D01*
X017217Y004835D02*
X016329Y004835D01*
X016329Y004931D02*
X017217Y004931D01*
X017217Y005028D02*
X016301Y005028D01*
X016234Y005125D02*
X017217Y005125D01*
X017217Y005222D02*
X016137Y005222D01*
X016040Y005319D02*
X017217Y005319D01*
X017217Y005416D02*
X015943Y005416D01*
X015846Y005513D02*
X017217Y005513D01*
X017217Y005610D02*
X015749Y005610D01*
X015726Y005707D02*
X017217Y005707D01*
X017217Y005804D02*
X015685Y005804D01*
X015625Y005901D02*
X017217Y005901D01*
X017217Y005998D02*
X015518Y005998D01*
X017513Y008663D02*
X016528Y009647D01*
X016528Y009887D01*
X016530Y009889D01*
X016560Y009198D02*
X016133Y009198D01*
X017513Y008663D02*
X017513Y002261D01*
X017803Y001925D02*
X017966Y001925D01*
X018105Y001829D02*
X017625Y001829D01*
X018284Y002234D02*
X018284Y009249D01*
X018532Y009497D01*
X018532Y009887D01*
X018530Y009889D01*
X019530Y009889D02*
X019540Y009879D01*
X019540Y008608D01*
X018727Y007795D01*
X018727Y003389D01*
X019022Y003720D02*
X019022Y007672D01*
X019707Y008357D01*
X019790Y008440D01*
X019835Y008549D01*
X019835Y009279D01*
X019870Y009279D01*
X019870Y005458D01*
X019870Y005458D01*
X019870Y004340D01*
X019860Y004316D01*
X019860Y000460D01*
X007975Y000457D01*
X008056Y000538D01*
X008067Y000564D01*
X008765Y000564D01*
X008894Y000564D01*
X009013Y000614D01*
X009958Y001558D01*
X015680Y001558D01*
X015809Y001558D01*
X015929Y001608D01*
X015438Y002765D02*
X010560Y002765D01*
X007540Y005785D01*
X007540Y009879D01*
X007530Y009889D01*
X007245Y009279D02*
X006827Y009279D01*
X006827Y006191D01*
X007245Y005773D01*
X007245Y009279D01*
X007245Y009198D02*
X006827Y009198D01*
X006827Y009101D02*
X007245Y009101D01*
X007245Y009004D02*
X006827Y009004D01*
X006827Y008907D02*
X007245Y008907D01*
X007245Y008810D02*
X006827Y008810D01*
X006827Y008713D02*
X007245Y008713D01*
X007245Y008616D02*
X006827Y008616D01*
X006827Y008519D02*
X007245Y008519D01*
X007245Y008422D02*
X006827Y008422D01*
X006827Y008325D02*
X007245Y008325D01*
X007245Y008228D02*
X006827Y008228D01*
X006827Y008131D02*
X007245Y008131D01*
X007245Y008034D02*
X006827Y008034D01*
X006827Y007938D02*
X007245Y007938D01*
X007245Y007841D02*
X006827Y007841D01*
X006827Y007744D02*
X007245Y007744D01*
X007245Y007647D02*
X006827Y007647D01*
X006827Y007550D02*
X007245Y007550D01*
X007245Y007453D02*
X006827Y007453D01*
X006827Y007356D02*
X007245Y007356D01*
X007245Y007259D02*
X006827Y007259D01*
X006827Y007162D02*
X007245Y007162D01*
X007245Y007065D02*
X006827Y007065D01*
X006827Y006968D02*
X007245Y006968D01*
X007245Y006871D02*
X006827Y006871D01*
X006827Y006774D02*
X007245Y006774D01*
X007245Y006677D02*
X006827Y006677D01*
X006827Y006580D02*
X007245Y006580D01*
X007245Y006483D02*
X006827Y006483D01*
X006827Y006386D02*
X007245Y006386D01*
X007245Y006289D02*
X006827Y006289D01*
X006827Y006192D02*
X007245Y006192D01*
X007245Y006095D02*
X006923Y006095D01*
X007020Y005998D02*
X007245Y005998D01*
X007245Y005901D02*
X007117Y005901D01*
X007214Y005804D02*
X007245Y005804D01*
X007835Y005907D02*
X008241Y005501D01*
X008241Y009279D01*
X007835Y009279D01*
X007835Y005907D01*
X007841Y005901D02*
X008241Y005901D01*
X008241Y005804D02*
X007938Y005804D01*
X008035Y005707D02*
X008241Y005707D01*
X008241Y005610D02*
X008132Y005610D01*
X008229Y005513D02*
X008241Y005513D01*
X008241Y005998D02*
X007835Y005998D01*
X007835Y006095D02*
X008241Y006095D01*
X008241Y006192D02*
X007835Y006192D01*
X007835Y006289D02*
X008241Y006289D01*
X008241Y006386D02*
X007835Y006386D01*
X007835Y006483D02*
X008241Y006483D01*
X008241Y006580D02*
X007835Y006580D01*
X007835Y006677D02*
X008241Y006677D01*
X008241Y006774D02*
X007835Y006774D01*
X007835Y006871D02*
X008241Y006871D01*
X008241Y006968D02*
X007835Y006968D01*
X007835Y007065D02*
X008241Y007065D01*
X008241Y007162D02*
X007835Y007162D01*
X007835Y007259D02*
X008241Y007259D01*
X008241Y007356D02*
X007835Y007356D01*
X007835Y007453D02*
X008241Y007453D01*
X008241Y007550D02*
X007835Y007550D01*
X007835Y007647D02*
X008241Y007647D01*
X008241Y007744D02*
X007835Y007744D01*
X007835Y007841D02*
X008241Y007841D01*
X008241Y007938D02*
X007835Y007938D01*
X007835Y008034D02*
X008241Y008034D01*
X008241Y008131D02*
X007835Y008131D01*
X007835Y008228D02*
X008241Y008228D01*
X008241Y008325D02*
X007835Y008325D01*
X007835Y008422D02*
X008241Y008422D01*
X008241Y008519D02*
X007835Y008519D01*
X007835Y008616D02*
X008241Y008616D01*
X008241Y008713D02*
X007835Y008713D01*
X007835Y008810D02*
X008241Y008810D01*
X008241Y008907D02*
X007835Y008907D01*
X007835Y009004D02*
X008241Y009004D01*
X008241Y009101D02*
X007835Y009101D01*
X007835Y009198D02*
X008241Y009198D01*
X006237Y007162D02*
X004478Y007162D01*
X004575Y007065D02*
X006237Y007065D01*
X006237Y006968D02*
X004616Y006968D01*
X004644Y006871D02*
X006237Y006871D01*
X006237Y006774D02*
X004644Y006774D01*
X004625Y006677D02*
X006237Y006677D01*
X006237Y006580D02*
X004585Y006580D01*
X004498Y006483D02*
X006237Y006483D01*
X006237Y006386D02*
X004332Y006386D01*
X004702Y009101D02*
X003490Y009101D01*
X003490Y009198D02*
X004553Y009198D01*
X004480Y009295D02*
X003490Y009295D01*
X003490Y009392D02*
X004480Y009392D01*
X004480Y009489D02*
X003490Y009489D01*
X003490Y009586D02*
X004480Y009586D01*
X004480Y009683D02*
X003490Y009683D01*
X003490Y009780D02*
X004480Y009780D01*
X004480Y009877D02*
X003490Y009877D01*
X003490Y009974D02*
X004480Y009974D01*
X004480Y010071D02*
X003490Y010071D01*
X003490Y010168D02*
X004480Y010168D01*
X004480Y010265D02*
X003490Y010265D01*
X009065Y000665D02*
X019860Y000665D01*
X019860Y000568D02*
X008903Y000568D01*
X007989Y000471D02*
X019860Y000471D01*
X019860Y003671D02*
X019072Y003671D01*
X019103Y003640D02*
X019022Y003720D01*
X019022Y003768D02*
X019860Y003768D01*
X019860Y003865D02*
X019022Y003865D01*
X019022Y003962D02*
X019860Y003962D01*
X019860Y004059D02*
X019022Y004059D01*
X019022Y004156D02*
X019860Y004156D01*
X019860Y004253D02*
X019022Y004253D01*
X019022Y004350D02*
X019870Y004350D01*
X019870Y004447D02*
X019022Y004447D01*
X019022Y004544D02*
X019870Y004544D01*
X019870Y004641D02*
X019022Y004641D01*
X019022Y004738D02*
X019870Y004738D01*
X019870Y004835D02*
X019022Y004835D01*
X019022Y004931D02*
X019870Y004931D01*
X019870Y005028D02*
X019022Y005028D01*
X019022Y005125D02*
X019870Y005125D01*
X019870Y005222D02*
X019022Y005222D01*
X019022Y005319D02*
X019870Y005319D01*
X019870Y005416D02*
X019022Y005416D01*
X019022Y005513D02*
X019870Y005513D01*
X019870Y005610D02*
X019022Y005610D01*
X019022Y005707D02*
X019870Y005707D01*
X019870Y005804D02*
X019022Y005804D01*
X019022Y005901D02*
X019870Y005901D01*
X019870Y005998D02*
X019022Y005998D01*
X019022Y006095D02*
X019870Y006095D01*
X019870Y006192D02*
X019022Y006192D01*
X019022Y006289D02*
X019870Y006289D01*
X019870Y006386D02*
X019022Y006386D01*
X019022Y006483D02*
X019870Y006483D01*
X019870Y006580D02*
X019022Y006580D01*
X019022Y006677D02*
X019870Y006677D01*
X019870Y006774D02*
X019022Y006774D01*
X019022Y006871D02*
X019870Y006871D01*
X019870Y006968D02*
X019022Y006968D01*
X019022Y007065D02*
X019870Y007065D01*
X019870Y007162D02*
X019022Y007162D01*
X019022Y007259D02*
X019870Y007259D01*
X019870Y007356D02*
X019022Y007356D01*
X019022Y007453D02*
X019870Y007453D01*
X019870Y007550D02*
X019022Y007550D01*
X019022Y007647D02*
X019870Y007647D01*
X019870Y007744D02*
X019094Y007744D01*
X019191Y007841D02*
X019870Y007841D01*
X019870Y007938D02*
X019288Y007938D01*
X019384Y008034D02*
X019870Y008034D01*
X019870Y008131D02*
X019481Y008131D01*
X019578Y008228D02*
X019870Y008228D01*
X019870Y008325D02*
X019675Y008325D01*
X019772Y008422D02*
X019870Y008422D01*
X019870Y008519D02*
X019823Y008519D01*
X019835Y008616D02*
X019870Y008616D01*
X019870Y008713D02*
X019835Y008713D01*
X019835Y008810D02*
X019870Y008810D01*
X019870Y008907D02*
X019835Y008907D01*
X019835Y009004D02*
X019870Y009004D01*
X019870Y009101D02*
X019835Y009101D01*
X019835Y009198D02*
X019870Y009198D01*
D15*
X016005Y004895D02*
X015284Y005616D01*
X015284Y003761D01*
X015135Y003612D01*
X012111Y003612D01*
X011950Y003773D01*
X011950Y006210D01*
X016005Y004895D02*
X016005Y002143D01*
X015745Y001883D01*
X009824Y001883D01*
X008829Y000889D01*
X007530Y000889D01*
D16*
X003410Y006653D02*
X001324Y006653D01*
X001324Y000393D01*
X000349Y000393D01*
X000345Y009763D01*
X003451Y009763D01*
X003491Y009667D01*
X003510Y009648D01*
X003510Y009507D01*
X003483Y009479D01*
X003438Y009370D01*
X003438Y009253D01*
X003483Y009144D01*
X003510Y009116D01*
X003510Y008999D01*
X003483Y008971D01*
X003438Y008863D01*
X003438Y008745D01*
X003483Y008636D01*
X003510Y008608D01*
X003510Y008582D01*
X001324Y008582D01*
X001324Y006988D01*
X003410Y006988D01*
X003410Y006653D01*
X003410Y006690D02*
X000346Y006690D01*
X000346Y006613D02*
X001324Y006613D01*
X001324Y006536D02*
X000347Y006536D01*
X000347Y006458D02*
X001324Y006458D01*
X001324Y006381D02*
X000347Y006381D01*
X000347Y006304D02*
X001324Y006304D01*
X001324Y006226D02*
X000347Y006226D01*
X000347Y006149D02*
X001324Y006149D01*
X001324Y006072D02*
X000347Y006072D01*
X000347Y005995D02*
X001324Y005995D01*
X001324Y005917D02*
X000347Y005917D01*
X000347Y005840D02*
X001324Y005840D01*
X001324Y005763D02*
X000347Y005763D01*
X000347Y005685D02*
X001324Y005685D01*
X001324Y005608D02*
X000347Y005608D01*
X000347Y005531D02*
X001324Y005531D01*
X001324Y005454D02*
X000347Y005454D01*
X000347Y005376D02*
X001324Y005376D01*
X001324Y005299D02*
X000347Y005299D01*
X000347Y005222D02*
X001324Y005222D01*
X001324Y005144D02*
X000347Y005144D01*
X000347Y005067D02*
X001324Y005067D01*
X001324Y004990D02*
X000347Y004990D01*
X000347Y004913D02*
X001324Y004913D01*
X001324Y004835D02*
X000347Y004835D01*
X000347Y004758D02*
X001324Y004758D01*
X001324Y004681D02*
X000347Y004681D01*
X000347Y004603D02*
X001324Y004603D01*
X001324Y004526D02*
X000347Y004526D01*
X000348Y004449D02*
X001324Y004449D01*
X001324Y004372D02*
X000348Y004372D01*
X000348Y004294D02*
X001324Y004294D01*
X001324Y004217D02*
X000348Y004217D01*
X000348Y004140D02*
X001324Y004140D01*
X001324Y004062D02*
X000348Y004062D01*
X000348Y003985D02*
X001324Y003985D01*
X001324Y003908D02*
X000348Y003908D01*
X000348Y003831D02*
X001324Y003831D01*
X001324Y003753D02*
X000348Y003753D01*
X000348Y003676D02*
X001324Y003676D01*
X001324Y003599D02*
X000348Y003599D01*
X000348Y003521D02*
X001324Y003521D01*
X001324Y003444D02*
X000348Y003444D01*
X000348Y003367D02*
X001324Y003367D01*
X001324Y003290D02*
X000348Y003290D01*
X000348Y003212D02*
X001324Y003212D01*
X001324Y003135D02*
X000348Y003135D01*
X000348Y003058D02*
X001324Y003058D01*
X001324Y002980D02*
X000348Y002980D01*
X000348Y002903D02*
X001324Y002903D01*
X001324Y002826D02*
X000348Y002826D01*
X000348Y002749D02*
X001324Y002749D01*
X001324Y002671D02*
X000348Y002671D01*
X000348Y002594D02*
X001324Y002594D01*
X001324Y002517D02*
X000348Y002517D01*
X000349Y002439D02*
X001324Y002439D01*
X001324Y002362D02*
X000349Y002362D01*
X000349Y002285D02*
X001324Y002285D01*
X001324Y002208D02*
X000349Y002208D01*
X000349Y002130D02*
X001324Y002130D01*
X001324Y002053D02*
X000349Y002053D01*
X000349Y001976D02*
X001324Y001976D01*
X001324Y001899D02*
X000349Y001899D01*
X000349Y001821D02*
X001324Y001821D01*
X001324Y001744D02*
X000349Y001744D01*
X000349Y001667D02*
X001324Y001667D01*
X001324Y001589D02*
X000349Y001589D01*
X000349Y001512D02*
X001324Y001512D01*
X001324Y001435D02*
X000349Y001435D01*
X000349Y001358D02*
X001324Y001358D01*
X001324Y001280D02*
X000349Y001280D01*
X000349Y001203D02*
X001324Y001203D01*
X001324Y001126D02*
X000349Y001126D01*
X000349Y001048D02*
X001324Y001048D01*
X001324Y000971D02*
X000349Y000971D01*
X000349Y000894D02*
X001324Y000894D01*
X001324Y000817D02*
X000349Y000817D01*
X000349Y000739D02*
X001324Y000739D01*
X001324Y000662D02*
X000349Y000662D01*
X000349Y000585D02*
X001324Y000585D01*
X001324Y000507D02*
X000349Y000507D01*
X000349Y000430D02*
X001324Y000430D01*
X000346Y006767D02*
X003410Y006767D01*
X003410Y006845D02*
X000346Y006845D01*
X000346Y006922D02*
X003410Y006922D01*
X003496Y008622D02*
X000346Y008622D01*
X000346Y008545D02*
X001324Y008545D01*
X001324Y008468D02*
X000346Y008468D01*
X000346Y008390D02*
X001324Y008390D01*
X001324Y008313D02*
X000346Y008313D01*
X000346Y008236D02*
X001324Y008236D01*
X001324Y008158D02*
X000346Y008158D01*
X000346Y008081D02*
X001324Y008081D01*
X001324Y008004D02*
X000346Y008004D01*
X000346Y007927D02*
X001324Y007927D01*
X001324Y007849D02*
X000346Y007849D01*
X000346Y007772D02*
X001324Y007772D01*
X001324Y007695D02*
X000346Y007695D01*
X000346Y007617D02*
X001324Y007617D01*
X001324Y007540D02*
X000346Y007540D01*
X000346Y007463D02*
X001324Y007463D01*
X001324Y007386D02*
X000346Y007386D01*
X000346Y007308D02*
X001324Y007308D01*
X001324Y007231D02*
X000346Y007231D01*
X000346Y007154D02*
X001324Y007154D01*
X001324Y007076D02*
X000346Y007076D01*
X000346Y006999D02*
X001324Y006999D01*
X000345Y008699D02*
X003456Y008699D01*
X003438Y008777D02*
X000345Y008777D01*
X000345Y008854D02*
X003438Y008854D01*
X003466Y008931D02*
X000345Y008931D01*
X000345Y009009D02*
X003510Y009009D01*
X003510Y009086D02*
X000345Y009086D01*
X000345Y009163D02*
X003475Y009163D01*
X003443Y009240D02*
X000345Y009240D01*
X000345Y009318D02*
X003438Y009318D01*
X003448Y009395D02*
X000345Y009395D01*
X000345Y009472D02*
X003480Y009472D01*
X003510Y009550D02*
X000345Y009550D01*
X000345Y009627D02*
X003510Y009627D01*
X003475Y009704D02*
X000345Y009704D01*
D17*
X003410Y006810D02*
X004200Y006810D01*
X004201Y006812D01*
M02*
