%
M48
M72
T01C0.0197
T02C0.0394
%
T01
X3757Y3222
X3779Y3823
X3783Y4427
X3795Y4958
X3783Y5501
X3795Y6021
X4201Y6812
X3709Y7705
X3722Y8252
X3734Y8804
X3734Y9311
X3742Y9835
X6998Y8811
X8072Y8827
X10989Y6324
X11950Y6210
X13351Y6308
X13530Y4514
X14552Y3100
X14942Y2304
X15438Y2765
X17513Y2261
X18284Y2234
X18727Y3389
X19348Y5689
X15284Y5616
X14742Y8350
T02
X16530Y9889
X18530Y9889
X19530Y9889
X20530Y4889
X8530Y9889
X7530Y9889
X6530Y9889
X6530Y889
X7530Y889
M30
